<svg width="41" height="30" viewBox="0 0 41 30" fill="none" xmlns="http://www.w3.org/2000/svg">
<g filter="url(#filter0_dd_14_34)">
<path fill-rule="evenodd" clip-rule="evenodd" d="M13.6655 0.0140862C11.0714 -0.157526 9.00595 1.28714 7.56174 3.10154C6.10939 4.92687 5.0864 7.34504 4.52043 9.76009C3.9577 12.1736 3.81621 14.7353 4.26997 16.8804C4.71234 18.9647 5.83779 21.1083 8.20578 21.787C10.4648 22.4344 12.4913 21.514 14.0396 20.2643C15.5911 19.0131 16.9345 17.2283 18.0177 15.5044C18.8666 14.1518 19.592 12.7742 20.1612 11.5979C20.7304 12.7727 21.4558 14.1518 22.3031 15.5044C23.3863 17.2283 24.7297 19.0131 26.2812 20.2643C27.8296 21.514 29.856 22.4344 32.115 21.787C34.483 21.1083 35.6085 18.9647 36.0508 16.8804C36.5062 14.7353 36.3631 12.1736 35.8004 9.76009C35.2344 7.34504 34.2114 4.92531 32.7591 3.10154C31.3165 1.28714 29.251 -0.159086 26.6569 0.0140862C23.8368 0.201299 21.8266 2.30589 20.6605 3.89564C20.4875 4.13322 20.321 4.37512 20.1612 4.62109C20.0011 4.37501 19.834 4.1331 19.6603 3.89564C18.4942 2.30433 16.4856 0.20286 13.6655 0.0140862ZM18.3007 7.85364C17.8404 8.96912 16.7231 11.5168 15.2301 13.8959C14.2201 15.506 13.0946 16.9506 11.9448 17.8773C10.795 18.8056 9.89233 19.0131 9.13932 18.7978C8.49527 18.6137 7.81057 17.9241 7.45765 16.2595C7.11937 14.6573 7.20231 12.5542 7.6951 10.4434C8.18952 8.33259 9.058 6.36529 10.1477 4.99396C11.2455 3.61326 12.3742 3.0563 13.4394 3.12807C14.6852 3.21075 15.9278 4.22794 16.9979 5.68977C17.5964 6.5057 18.0437 7.331 18.299 7.85208L18.3007 7.85364ZM22.0218 7.85364C22.4804 8.96912 23.5994 11.5168 25.0907 13.8959C26.1023 15.506 27.2278 16.9506 28.376 17.8773C29.5275 18.8056 30.4285 19.0131 31.1831 18.7978C31.8255 18.6137 32.5102 17.9241 32.8632 16.2595C33.2031 14.6573 33.1201 12.5542 32.6257 10.4434C32.1313 8.33259 31.2644 6.36529 30.1731 4.99396C29.0753 3.61326 27.9483 3.0563 26.8814 3.12807C25.6356 3.21075 24.393 4.22794 23.3229 5.68977C22.8271 6.37451 22.3919 7.0978 22.0218 7.85208V7.85364Z" fill="#5BADFF"/>
</g>
<defs>
<filter id="filter0_dd_14_34" x="0" y="0" width="40.3215" height="30" filterUnits="userSpaceOnUse" color-interpolation-filters="sRGB">
<feFlood flood-opacity="0" result="BackgroundImageFix"/>
<feColorMatrix in="SourceAlpha" type="matrix" values="0 0 0 0 0 0 0 0 0 0 0 0 0 0 0 0 0 0 127 0" result="hardAlpha"/>
<feOffset dy="4"/>
<feGaussianBlur stdDeviation="2"/>
<feComposite in2="hardAlpha" operator="out"/>
<feColorMatrix type="matrix" values="0 0 0 0 0 0 0 0 0 0 0 0 0 0 0 0 0 0 0.25 0"/>
<feBlend mode="normal" in2="BackgroundImageFix" result="effect1_dropShadow_14_34"/>
<feColorMatrix in="SourceAlpha" type="matrix" values="0 0 0 0 0 0 0 0 0 0 0 0 0 0 0 0 0 0 127 0" result="hardAlpha"/>
<feOffset dy="4"/>
<feGaussianBlur stdDeviation="2"/>
<feComposite in2="hardAlpha" operator="out"/>
<feColorMatrix type="matrix" values="0 0 0 0 0 0 0 0 0 0 0 0 0 0 0 0 0 0 0.25 0"/>
<feBlend mode="normal" in2="effect1_dropShadow_14_34" result="effect2_dropShadow_14_34"/>
<feBlend mode="normal" in="SourceGraphic" in2="effect2_dropShadow_14_34" result="shape"/>
</filter>
</defs>
</svg>
