<svg width="20" height="15" viewBox="0 0 20 15" fill="none" xmlns="http://www.w3.org/2000/svg">
<path d="M8 10.7143L13.19 7.5L8 4.28571V10.7143ZM19.56 2.325C19.69 2.82857 19.78 3.50357 19.84 4.36071C19.91 5.21786 19.94 5.95714 19.94 6.6L20 7.5C20 9.84643 19.84 11.5714 19.56 12.675C19.31 13.6393 18.73 14.2607 17.83 14.5286C17.36 14.6679 16.5 14.7643 15.18 14.8286C13.88 14.9036 12.69 14.9357 11.59 14.9357L10 15C5.81 15 3.2 14.8286 2.17 14.5286C1.27 14.2607 0.69 13.6393 0.44 12.675C0.31 12.1714 0.22 11.4964 0.16 10.6393C0.0900001 9.78214 0.0599999 9.04286 0.0599999 8.4L0 7.5C0 5.15357 0.16 3.42857 0.44 2.325C0.69 1.36071 1.27 0.739286 2.17 0.471429C2.64 0.332143 3.5 0.235714 4.82 0.171428C6.12 0.0964284 7.31 0.0642857 8.41 0.0642857L10 0C14.19 0 16.8 0.171429 17.83 0.471429C18.73 0.739286 19.31 1.36071 19.56 2.325Z" fill="white"/>
</svg>
